<svg width="160" height="50" viewBox="0 0 133 27" fill="none" xmlns="http://www.w3.org/2000/svg">
<g filter="url(#filter0_d_9_7)">
<path d="M13.72 11.4H19.312C19.168 12.056 18.936 12.672 18.616 13.248C18.312 13.824 17.92 14.336 17.44 14.784C16.96 15.232 16.384 15.584 15.712 15.84C15.056 16.08 14.312 16.2 13.48 16.2C12.296 16.2 11.224 15.92 10.264 15.36C9.304 14.8 8.536 14.024 7.96 13.032C7.4 12.04 7.12 10.896 7.12 9.6C7.12 8.288 7.4 7.144 7.96 6.168C8.536 5.176 9.304 4.4 10.264 3.84C11.224 3.28 12.296 3 13.48 3C14.76 3 15.872 3.256 16.816 3.768C17.76 4.264 18.496 4.96 19.024 5.856L20.464 4.536C19.984 3.752 19.392 3.096 18.688 2.568C18 2.04 17.216 1.64 16.336 1.368C15.472 1.096 14.52 0.959999 13.48 0.959999C12.264 0.959999 11.136 1.176 10.096 1.608C9.056 2.024 8.152 2.624 7.384 3.408C6.616 4.176 6.016 5.088 5.584 6.144C5.168 7.2 4.96 8.352 4.96 9.6C4.96 10.848 5.168 12 5.584 13.056C6.016 14.112 6.616 15.032 7.384 15.816C8.152 16.584 9.056 17.184 10.096 17.616C11.136 18.032 12.264 18.24 13.48 18.24C14.76 18.24 15.896 18.008 16.888 17.544C17.896 17.064 18.744 16.416 19.432 15.6C20.12 14.784 20.64 13.856 20.992 12.816C21.344 11.76 21.52 10.648 21.52 9.48H13.72V11.4ZM25.2734 14.592C25.2734 14.192 25.3694 13.848 25.5614 13.56C25.7534 13.272 26.0414 13.048 26.4254 12.888C26.8254 12.728 27.3374 12.648 27.9614 12.648C28.6334 12.648 29.2654 12.736 29.8574 12.912C30.4494 13.072 31.0254 13.344 31.5854 13.728V12.6C31.4734 12.456 31.2574 12.272 30.9374 12.048C30.6174 11.808 30.1854 11.6 29.6414 11.424C29.1134 11.232 28.4494 11.136 27.6494 11.136C26.2894 11.136 25.2254 11.464 24.4574 12.12C23.7054 12.76 23.3294 13.616 23.3294 14.688C23.3294 15.44 23.5054 16.08 23.8574 16.608C24.2094 17.136 24.6734 17.544 25.2494 17.832C25.8414 18.104 26.4734 18.24 27.1454 18.24C27.7534 18.24 28.3614 18.128 28.9694 17.904C29.5934 17.68 30.1134 17.336 30.5294 16.872C30.9614 16.408 31.1774 15.824 31.1774 15.12L30.7934 13.68C30.7934 14.256 30.6494 14.768 30.3614 15.216C30.0894 15.648 29.7134 15.984 29.2334 16.224C28.7694 16.464 28.2414 16.584 27.6494 16.584C27.1854 16.584 26.7694 16.512 26.4014 16.368C26.0494 16.208 25.7694 15.976 25.5614 15.672C25.3694 15.368 25.2734 15.008 25.2734 14.592ZM24.9854 9.504C25.1614 9.376 25.4014 9.224 25.7054 9.048C26.0094 8.872 26.3774 8.72 26.8094 8.592C27.2574 8.464 27.7534 8.4 28.2974 8.4C28.6334 8.4 28.9534 8.432 29.2574 8.496C29.5614 8.56 29.8254 8.664 30.0494 8.808C30.2894 8.952 30.4734 9.152 30.6014 9.408C30.7294 9.648 30.7934 9.96 30.7934 10.344V18H32.7134V10.08C32.7134 9.36 32.5294 8.752 32.1614 8.256C31.8094 7.76 31.3054 7.384 30.6494 7.128C30.0094 6.856 29.2574 6.72 28.3934 6.72C27.3694 6.72 26.4894 6.872 25.7534 7.176C25.0334 7.48 24.4654 7.784 24.0494 8.088L24.9854 9.504ZM51.0841 11.04C51.0841 10.128 50.9401 9.352 50.6521 8.712C50.3801 8.056 49.9801 7.56 49.4521 7.224C48.9241 6.888 48.2841 6.72 47.5321 6.72C46.7961 6.72 46.1401 6.896 45.5641 7.248C44.9881 7.584 44.5081 8.096 44.1241 8.784C43.8681 8.128 43.4601 7.624 42.9001 7.272C42.3561 6.904 41.7001 6.72 40.9321 6.72C40.2441 6.72 39.6441 6.872 39.1321 7.176C38.6361 7.48 38.2201 7.944 37.8841 8.568V6.96H35.9641V18H37.8841V11.28C37.8841 10.704 37.9881 10.208 38.1961 9.792C38.4041 9.376 38.7001 9.064 39.0841 8.856C39.4681 8.632 39.9241 8.52 40.4521 8.52C41.1721 8.52 41.7001 8.744 42.0361 9.192C42.3881 9.64 42.5641 10.336 42.5641 11.28V18H44.4841V11.28C44.4841 10.704 44.5881 10.208 44.7961 9.792C45.0041 9.376 45.3001 9.064 45.6841 8.856C46.0681 8.632 46.5241 8.52 47.0521 8.52C47.7721 8.52 48.3001 8.744 48.6361 9.192C48.9881 9.64 49.1641 10.336 49.1641 11.28V18H51.0841V11.04ZM58.9626 18.24C60.1466 18.24 61.1706 18.008 62.0346 17.544C62.9146 17.064 63.6426 16.36 64.2186 15.432L62.6586 14.448C62.2586 15.12 61.7706 15.624 61.1946 15.96C60.6186 16.28 59.9546 16.44 59.2026 16.44C58.4506 16.44 57.8106 16.28 57.2826 15.96C56.7546 15.64 56.3546 15.176 56.0826 14.568C55.8106 13.96 55.6746 13.224 55.6746 12.36C55.6906 11.512 55.8346 10.8 56.1066 10.224C56.3946 9.632 56.7946 9.184 57.3066 8.88C57.8346 8.56 58.4666 8.4 59.2026 8.4C59.8266 8.4 60.3706 8.536 60.8346 8.808C61.2986 9.08 61.6586 9.456 61.9146 9.936C62.1866 10.416 62.3226 10.984 62.3226 11.64C62.3226 11.752 62.2986 11.896 62.2506 12.072C62.2026 12.232 62.1546 12.352 62.1066 12.432L62.8746 11.328H54.9546V12.96H64.3866C64.3866 12.928 64.3866 12.856 64.3866 12.744C64.4026 12.616 64.4106 12.496 64.4106 12.384C64.4106 11.216 64.2026 10.208 63.7866 9.36C63.3706 8.512 62.7706 7.864 61.9866 7.416C61.2186 6.952 60.2906 6.72 59.2026 6.72C58.1146 6.72 57.1546 6.96 56.3226 7.44C55.5066 7.92 54.8666 8.592 54.4026 9.456C53.9546 10.32 53.7306 11.328 53.7306 12.48C53.7306 13.616 53.9466 14.616 54.3786 15.48C54.8266 16.344 55.4426 17.024 56.2266 17.52C57.0266 18 57.9386 18.24 58.9626 18.24ZM68.9622 6.96H67.0422V18H68.9622V6.96ZM72.2982 9.072L73.3542 7.488C73.0662 7.184 72.7462 6.984 72.3942 6.888C72.0582 6.776 71.6902 6.72 71.2902 6.72C70.7782 6.72 70.2742 6.92 69.7782 7.32C69.2822 7.72 68.8742 8.264 68.5542 8.952C68.2502 9.624 68.0982 10.4 68.0982 11.28H68.9622C68.9622 10.752 69.0102 10.28 69.1062 9.864C69.2182 9.448 69.4102 9.12 69.6822 8.88C69.9542 8.64 70.3302 8.52 70.8102 8.52C71.1302 8.52 71.3942 8.568 71.6022 8.664C71.8102 8.744 72.0422 8.88 72.2982 9.072Z" fill="#6B0000"/>
<path d="M74.3088 3.12H82.6608L73.8288 18H85.5887V16.08H77.2368L86.0688 1.2H74.3088V3.12ZM86.6603 12.48C86.6603 13.584 86.9083 14.576 87.4043 15.456C87.9163 16.32 88.6043 17 89.4683 17.496C90.3323 17.992 91.3003 18.24 92.3723 18.24C93.4603 18.24 94.4283 17.992 95.2763 17.496C96.1403 17 96.8203 16.32 97.3163 15.456C97.8283 14.576 98.0843 13.584 98.0843 12.48C98.0843 11.36 97.8283 10.368 97.3163 9.504C96.8203 8.64 96.1403 7.96 95.2763 7.464C94.4283 6.968 93.4603 6.72 92.3723 6.72C91.3003 6.72 90.3323 6.968 89.4683 7.464C88.6043 7.96 87.9163 8.64 87.4043 9.504C86.9083 10.368 86.6603 11.36 86.6603 12.48ZM88.6043 12.48C88.6043 11.712 88.7643 11.032 89.0843 10.44C89.4203 9.832 89.8683 9.36 90.4283 9.024C91.0043 8.688 91.6523 8.52 92.3723 8.52C93.0923 8.52 93.7323 8.688 94.2923 9.024C94.8683 9.36 95.3163 9.832 95.6363 10.44C95.9723 11.032 96.1403 11.712 96.1403 12.48C96.1403 13.248 95.9723 13.928 95.6363 14.52C95.3163 15.112 94.8683 15.584 94.2923 15.936C93.7323 16.272 93.0923 16.44 92.3723 16.44C91.6523 16.44 91.0043 16.272 90.4283 15.936C89.8683 15.584 89.4203 15.112 89.0843 14.52C88.7643 13.928 88.6043 13.248 88.6043 12.48ZM107.802 11.28V18H109.722V11.04C109.722 9.712 109.378 8.664 108.69 7.896C108.018 7.112 107.098 6.72 105.93 6.72C105.21 6.72 104.57 6.88 104.01 7.2C103.466 7.52 103.01 8.016 102.642 8.688V6.96H100.722V18H102.642V11.28C102.642 10.736 102.754 10.256 102.978 9.84C103.218 9.424 103.546 9.104 103.962 8.88C104.394 8.64 104.89 8.52 105.45 8.52C106.218 8.52 106.802 8.752 107.202 9.216C107.602 9.68 107.802 10.368 107.802 11.28ZM117.603 18.24C118.787 18.24 119.811 18.008 120.675 17.544C121.555 17.064 122.283 16.36 122.859 15.432L121.299 14.448C120.899 15.12 120.411 15.624 119.835 15.96C119.259 16.28 118.595 16.44 117.843 16.44C117.091 16.44 116.451 16.28 115.923 15.96C115.395 15.64 114.995 15.176 114.723 14.568C114.451 13.96 114.315 13.224 114.315 12.36C114.331 11.512 114.475 10.8 114.747 10.224C115.035 9.632 115.435 9.184 115.947 8.88C116.475 8.56 117.107 8.4 117.843 8.4C118.467 8.4 119.011 8.536 119.475 8.808C119.939 9.08 120.299 9.456 120.555 9.936C120.827 10.416 120.963 10.984 120.963 11.64C120.963 11.752 120.939 11.896 120.891 12.072C120.843 12.232 120.795 12.352 120.747 12.432L121.515 11.328H113.595V12.96H123.027C123.027 12.928 123.027 12.856 123.027 12.744C123.043 12.616 123.051 12.496 123.051 12.384C123.051 11.216 122.843 10.208 122.427 9.36C122.011 8.512 121.411 7.864 120.627 7.416C119.859 6.952 118.931 6.72 117.843 6.72C116.755 6.72 115.795 6.96 114.963 7.44C114.147 7.92 113.507 8.592 113.043 9.456C112.595 10.32 112.371 11.328 112.371 12.48C112.371 13.616 112.587 14.616 113.019 15.48C113.467 16.344 114.083 17.024 114.867 17.52C115.667 18 116.579 18.24 117.603 18.24Z" fill="#BABABA"/>
<path d="M126.163 17.04C126.163 17.392 126.291 17.704 126.547 17.976C126.819 18.232 127.131 18.36 127.483 18.36C127.851 18.36 128.163 18.232 128.419 17.976C128.675 17.704 128.803 17.392 128.803 17.04C128.803 16.672 128.675 16.36 128.419 16.104C128.163 15.848 127.851 15.72 127.483 15.72C127.131 15.72 126.819 15.848 126.547 16.104C126.291 16.36 126.163 16.672 126.163 17.04Z" fill="#B00000"/>
</g>
<defs>
<filter id="filter0_d_9_7" x="0.959999" y="0.959999" width="131.843" height="25.4" filterUnits="userSpaceOnUse" color-interpolation-filters="sRGB">
<feFlood flood-opacity="0" result="BackgroundImageFix"/>
<feColorMatrix in="SourceAlpha" type="matrix" values="0 0 0 0 0 0 0 0 0 0 0 0 0 0 0 0 0 0 127 0" result="hardAlpha"/>
<feOffset dy="4"/>
<feGaussianBlur stdDeviation="2"/>
<feComposite in2="hardAlpha" operator="out"/>
<feColorMatrix type="matrix" values="0 0 0 0 0 0 0 0 0 0 0 0 0 0 0 0 0 0 0.25 0"/>
<feBlend mode="normal" in2="BackgroundImageFix" result="effect1_dropShadow_9_7"/>
<feBlend mode="normal" in="SourceGraphic" in2="effect1_dropShadow_9_7" result="shape"/>
</filter>
</defs>
</svg>
